<svg xmlns="http://www.w3.org/2000/svg" viewBox="0 0 235 235"><defs><style>.cls-1{fill:#231f20;stroke:#231f20;stroke-miterlimit:10;}.cls-2{fill:#fff;}</style></defs><g id="Layer_2" data-name="Layer 2"><g id="Layer_1-2" data-name="Layer 1"><rect class="cls-1" x="0.5" y="0.5" width="234" height="234"/><path class="cls-2" d="M215.34,151.84c-3.09-2-6-4.13-9.23-5.89a71.5,71.5,0,0,0-10.37-4.58,79.67,79.67,0,0,0-8.9-2.6q2.58-2.53,5-5.24c2.45-2.73,4.79-5.57,7.07-8.45,1.19-1.51,2.32-3.06,3.46-4.61.57-.78,1.09-1.58,1.62-2.4s.87-1.77,1.43-2.55a2.72,2.72,0,0,0-1.63-4.38c-3.62-.48-7.17-1.22-10.83-1.46a72.65,72.65,0,0,0-11.33.21,79.12,79.12,0,0,0-9.16,1.39q1.28-3.39,2.34-6.85c1.08-3.52,2-7.08,2.88-10.66.45-1.87.83-3.76,1.21-5.64.2-.95.33-1.9.47-2.86s0-2,.23-2.91a2.71,2.71,0,0,0-3.31-3.29c-3.49,1.08-7,1.91-10.44,3.24a72.19,72.19,0,0,0-10.2,5,80.15,80.15,0,0,0-7.73,5.12q-.25-3.61-.74-7.21c-.49-3.64-1.13-7.27-1.84-10.88-.37-1.89-.82-3.76-1.26-5.63-.23-1-.5-1.86-.78-2.79s-.78-1.82-1-2.75a2.71,2.71,0,0,0-4.38-1.59c-2.72,2.46-5.57,4.7-8.13,7.34a73.12,73.12,0,0,0-7.18,8.8,81.82,81.82,0,0,0-4.87,7.91c-1.16-2.12-2.4-4.2-3.69-6.23-2-3.11-4.07-6.13-6.22-9.11-1.13-1.55-2.32-3.06-3.5-4.58-.6-.76-1.23-1.48-1.87-2.2S101,62.15,100.4,61.4a2.7,2.7,0,0,0-4.64.4c-1.44,3.37-3.1,6.61-4.31,10.08a72,72,0,0,0-2.83,11,81.49,81.49,0,0,0-1.12,9.24c-1.94-1.43-3.93-2.8-6-4.11-3.09-2-6.26-3.84-9.46-5.64-1.67-.93-3.39-1.8-5.1-2.68-.86-.44-1.73-.83-2.61-1.21s-1.89-.58-2.74-1a2.7,2.7,0,0,0-4,2.32c.1,3.66,0,7.3.31,11a73.14,73.14,0,0,0,2,11.19,80,80,0,0,0,2.85,8.85c-2.36-.48-4.74-.88-7.12-1.21-3.63-.51-7.29-.86-10.94-1.14-1.91-.15-3.83-.21-5.75-.29-1,0-1.92,0-2.88,0s-2,.27-2.91.24a2.72,2.72,0,0,0-2.7,3.81c1.63,3.28,3,6.64,4.87,9.82a73.21,73.21,0,0,0,6.52,9.3,81.15,81.15,0,0,0,6.29,6.83c-2.34.56-4.67,1.19-7,1.9-3.51,1.07-7,2.29-10.4,3.58-1.8.67-3.57,1.42-5.34,2.16-.89.37-1.75.78-2.62,1.21s-1.66,1.07-2.53,1.44a2.72,2.72,0,0,0-.86,4.59c2.85,2.3,5.51,4.76,8.52,6.87a73.19,73.19,0,0,0,9.81,5.69,85.89,85.89,0,0,0,20.72,6.86A82.92,82.92,0,0,0,100,170.1h0l.11,0c.31-.09.61-.19.92-.3l.06,0a64.92,64.92,0,0,1,17.87-2.85,52.06,52.06,0,0,1,15.91,2.54,73.41,73.41,0,0,0,22.69,5.16c13,.87,25.71-2.35,37.59-7.46,3.37-1.45,6.68-3,9.95-4.7,1.72-.86,3.39-1.8,5.07-2.73.85-.46,1.66-1,2.47-1.49s1.54-1.24,2.37-1.71A2.73,2.73,0,0,0,215.34,151.84Zm-35.31-35c3.78-.49,7.56-.69,11.38-.82,2.05-.07,4.15-.12,6.23-.06-.9,1.09-1.77,2.21-2.67,3.31-2,2.47-4,5-6.1,7.4a108.86,108.86,0,0,1-10.33,10.6c-1.38-.18-2.76-.33-4.13-.45a83.54,83.54,0,0,0-17.46.33A73.07,73.07,0,0,0,169.16,119,83,83,0,0,1,180,116.83Zm-62.27-14.55a77.66,77.66,0,0,1,3.94,22,80,80,0,0,0-4.58,12,71.7,71.7,0,0,0-3.58-11.48c0-1.16.12-2.31.23-3.47A83.29,83.29,0,0,1,117.76,102.28Zm11.62,20.85A82.94,82.94,0,0,1,141,107.55a77.61,77.61,0,0,1-5.61,21.58,80.25,80.25,0,0,0-9.18,9,70.46,70.46,0,0,0,1.54-11.92C128.25,125.16,128.8,124.14,129.38,123.13Zm16.31,16.2a81.15,81.15,0,0,0-12.09,4.28A70.31,70.31,0,0,0,140,133.46c.92-.71,1.85-1.41,2.8-2.09a83,83,0,0,1,17-9.26A77.43,77.43,0,0,1,145.69,139.33Zm-37.56-1a71,71,0,0,0-8.06-8.91c-.43-1.07-.85-2.15-1.24-3.25a83.34,83.34,0,0,1-4.33-18.94,77.53,77.53,0,0,1,12.76,18.26A81.18,81.18,0,0,0,108.13,138.37Zm-7.28,5.71a70,70,0,0,0-11-4.69q-1.27-1.19-2.49-2.43a82.59,82.59,0,0,1-11.85-15.37,77.39,77.39,0,0,1,19.21,11.2A81.69,81.69,0,0,0,100.85,144.08Zm-14.52.6A80.67,80.67,0,0,0,97.71,153a64.85,64.85,0,0,0,8.63,4.3c-2-.2-4-.46-6.06-.81a100.94,100.94,0,0,1-18.89-4.92,82.81,82.81,0,0,1-17.19-8.95A76.7,76.7,0,0,1,86.33,144.68Zm61.77.52c1.13-.26,2.26-.49,3.4-.7a82,82,0,0,1,19.33-1.23,76.58,76.58,0,0,1-26.89,11.48,98.68,98.68,0,0,1-18.06,1.83A63.26,63.26,0,0,0,148.1,145.2Zm9-51c3.23-2,6.58-3.81,10-5.54,1.83-.92,3.71-1.86,5.63-2.68-.36,1.37-.68,2.76-1,4.13-.81,3.1-1.55,6.21-2.44,9.29a109.26,109.26,0,0,1-4.94,14c-1.32.42-2.64.86-3.94,1.33a84.24,84.24,0,0,0-15.71,7.66,73.12,73.12,0,0,0,3.49-21.61A85,85,0,0,1,157.1,94.24ZM126.85,83.4c2.07-3.22,4.38-6.23,6.74-9.23,1.28-1.62,2.6-3.26,4-4.81.24,1.39.53,2.78.78,4.18.56,3.15,1.18,6.29,1.67,9.46a110.78,110.78,0,0,1,1.36,14.76c-1,.94-2,1.9-3,2.87a84.84,84.84,0,0,0-11.06,13.57,73.11,73.11,0,0,0-5.87-21.09A83.82,83.82,0,0,1,126.85,83.4Zm-32,2.9c.54-3.79,1.37-7.5,2.26-11.22.48-2,1-4,1.61-6,.81,1.17,1.65,2.31,2.46,3.47,1.83,2.63,3.71,5.21,5.48,7.88a110.61,110.61,0,0,1,7.41,12.83c-.55,1.28-1.06,2.58-1.54,3.88a84.18,84.18,0,0,0-4.36,17A73,73,0,0,0,94,97.39,84.33,84.33,0,0,1,94.85,86.3ZM67,102.42c-1.09-3.67-1.89-7.39-2.64-11.14-.4-2-.79-4.09-1.06-6.17,1.22.72,2.46,1.4,3.68,2.11,2.76,1.62,5.54,3.17,8.26,4.85a108.48,108.48,0,0,1,12.1,8.53c0,1.39.11,2.78.22,4.16A84.13,84.13,0,0,0,90.72,122a72.36,72.36,0,0,0-19.81-9.17A84.44,84.44,0,0,1,67,102.42ZM48.51,128.77c-2.53-2.87-4.81-5.91-7.06-9-1.2-1.66-2.43-3.38-3.54-5.15,1.4.14,2.81.23,4.22.37,3.18.3,6.36.54,9.53.91a110,110,0,0,1,14.54,2.64c.62,1.25,1.27,2.48,1.94,3.69A84.6,84.6,0,0,0,78.2,136.55a72.48,72.48,0,0,0-21.81,0A85.52,85.52,0,0,1,48.51,128.77Zm-5.78,31.71c-3.5-1.53-6.84-3.33-10.17-5.19-1.79-1-3.62-2-5.37-3.18,1.33-.47,2.65-1,4-1.45,3-1.06,6-2.19,9-3.18a111.33,111.33,0,0,1,14.3-3.73c1.09.87,2.19,1.71,3.31,2.53a83,83,0,0,0,39.71,15.46,65.78,65.78,0,0,0,9.63.27c-1.93.67-3.87,1.28-5.85,1.82a101.68,101.68,0,0,1-19.2,3.49A82.94,82.94,0,0,1,42.73,160.48Zm161.21-5c-2.88,1.39-5.73,2.83-8.64,4.15a101.2,101.2,0,0,1-17.53,6.29,76.49,76.49,0,0,1-35,.28,99.3,99.3,0,0,1-17.16-6c11.62,2.07,24.32.09,35.23-4.11a71.94,71.94,0,0,0,19.77-11.76A83.77,83.77,0,0,1,191.39,147c3.64,1.15,7.15,2.57,10.67,4,1.89.8,3.81,1.64,5.68,2.57C206.47,154.23,205.21,154.88,203.94,155.49Z"/></g></g></svg>