<svg xmlns="http://www.w3.org/2000/svg" viewBox="0 0 270 36"><defs><style>.cls-1{fill:#fff;}</style></defs><g id="Layer_2" data-name="Layer 2"><g id="Layer_1-2" data-name="Layer 1"><path class="cls-1" d="M72,21.85v-15h3.67V21.7c0,5.84,2.61,8.48,7.23,8.48s7.26-2.64,7.26-8.48V6.84h3.56v15c0,7.65-4.07,11.69-10.86,11.69S72,29.5,72,21.85Z"/><path class="cls-1" d="M101.25,6.84h3.67V30h13.91v3.28H101.25Z"/><path class="cls-1" d="M125.77,10.12H117V6.84h21.25v3.28H129.4V33.24h-3.63Z"/><path class="cls-1" d="M159.38,33.24l-5.54-8.11c-.51,0-1.06.08-1.61.08h-6.35v8h-3.67V6.84h10c6.68,0,10.71,3.47,10.71,9.2a8.32,8.32,0,0,1-5.65,8.34l6.09,8.86ZM159.27,16c0-3.77-2.46-5.92-7.15-5.92h-6.24V22h6.24C156.81,22,159.27,19.81,159.27,16Z"/><path class="cls-1" d="M185.26,26.64H171.61l-2.83,6.6H165l11.63-26.4h3.64l11.67,26.4h-3.86Zm-1.29-3-5.54-12.93-5.54,12.93Z"/><path class="cls-1" d="M216.71,6.84l-11.27,26.4h-3.63l-11.3-26.4h4l9.25,21.68L213,6.84Z"/><path class="cls-1" d="M217.63,20c0-7.73,5.8-13.5,13.69-13.5A13.18,13.18,0,0,1,244.93,20a13.18,13.18,0,0,1-13.61,13.5C223.43,33.54,217.63,27.77,217.63,20Zm23.63,0a10,10,0,1,0-20,0,10,10,0,1,0,20,0Z"/><path class="cls-1" d="M265.78,33.24l-7.71-10.9-7.59,10.9h-4.22l9.65-13.54L246.84,6.84H251L258.22,17l7.12-10.15h4l-9.06,12.75L270,33.24Z"/><path class="cls-1" d="M61.91,28.8c-1-.62-1.89-1.3-2.9-1.85a23.07,23.07,0,0,0-3.26-1.44,24.31,24.31,0,0,0-2.8-.82c.54-.53,1.06-1.08,1.57-1.65.77-.86,1.51-1.75,2.22-2.66.38-.47.73-1,1.09-1.45q.27-.36.51-.75c.16-.26.27-.56.45-.8A.86.86,0,0,0,58.28,16c-1.14-.15-2.26-.38-3.41-.46a22.28,22.28,0,0,0-3.56.07,25.31,25.31,0,0,0-2.88.43c.27-.71.51-1.43.73-2.15.34-1.11.64-2.23.91-3.35.14-.59.26-1.19.38-1.78.06-.3.11-.59.15-.9s0-.62.07-.91a.85.85,0,0,0-1-1c-1.1.34-2.21.6-3.28,1a22.12,22.12,0,0,0-3.21,1.56,26.21,26.21,0,0,0-2.43,1.61c-.06-.76-.14-1.51-.24-2.26-.15-1.15-.35-2.29-.58-3.43-.11-.59-.25-1.18-.39-1.77-.07-.3-.16-.58-.25-.88S39,1.19,38.94.9A.85.85,0,0,0,37.56.4c-.85.77-1.75,1.48-2.55,2.31a22.87,22.87,0,0,0-2.26,2.76A26.45,26.45,0,0,0,31.21,8c-.36-.66-.75-1.32-1.16-2-.62-1-1.28-1.92-1.95-2.86-.36-.49-.73-1-1.11-1.44-.18-.24-.38-.47-.58-.69s-.47-.42-.65-.65A.85.85,0,0,0,24.3.48c-.45,1.06-1,2.08-1.35,3.17a23.16,23.16,0,0,0-.9,3.46A25.68,25.68,0,0,0,21.7,10c-.61-.45-1.23-.88-1.87-1.29-1-.63-2-1.21-3-1.77-.53-.3-1.07-.57-1.61-.85-.27-.14-.54-.26-.82-.38s-.59-.18-.86-.32a.85.85,0,0,0-1.27.73c0,1.15,0,2.3.1,3.45A22.2,22.2,0,0,0,13,13.11a27.29,27.29,0,0,0,.9,2.78c-.74-.15-1.49-.28-2.24-.38-1.14-.16-2.29-.27-3.44-.36-.6,0-1.21-.06-1.81-.09H5.53c-.3,0-.61.09-.91.08a.86.86,0,0,0-.85,1.2c.51,1,.95,2.09,1.53,3.08a24,24,0,0,0,2.05,2.93,26.82,26.82,0,0,0,2,2.15c-.73.17-1.47.37-2.19.6-1.1.33-2.19.72-3.27,1.12-.57.21-1.12.45-1.68.68l-.82.38c-.28.14-.53.34-.8.45A.86.86,0,0,0,.3,29.18C1.2,29.9,2,30.68,3,31.34a22.58,22.58,0,0,0,3.09,1.79,27.06,27.06,0,0,0,6.51,2.16,26.15,26.15,0,0,0,13.05-.75h0l0,0,.29-.09h0a20.19,20.19,0,0,1,5.62-.89,16.23,16.23,0,0,1,5,.79A23,23,0,0,0,43.73,36a25.68,25.68,0,0,0,11.82-2.35c1.06-.46,2.1-1,3.13-1.48.54-.27,1.07-.56,1.6-.86a8.81,8.81,0,0,0,.77-.47c.26-.16.49-.39.75-.53A.86.86,0,0,0,61.91,28.8Zm-11.1-11a35.71,35.71,0,0,1,3.57-.26c.65,0,1.31,0,2,0l-.84,1c-.64.78-1.26,1.57-1.92,2.33a35.36,35.36,0,0,1-3.25,3.34L49,24.07a26.51,26.51,0,0,0-5.49.11,23.08,23.08,0,0,0,3.84-5.71A26.19,26.19,0,0,1,50.81,17.79ZM31.22,13.21a24.62,24.62,0,0,1,1.24,6.91A25,25,0,0,0,31,23.9a22.56,22.56,0,0,0-1.13-3.61c0-.37,0-.73.07-1.1A26.42,26.42,0,0,1,31.22,13.21Zm3.66,6.56a25.75,25.75,0,0,1,3.64-4.9,24.65,24.65,0,0,1-1.77,6.79,25.64,25.64,0,0,0-2.89,2.82,22.52,22.52,0,0,0,.49-3.75C34.52,20.41,34.69,20.09,34.88,19.77ZM40,24.87a24.61,24.61,0,0,0-3.81,1.34,22.51,22.51,0,0,0,2-3.19c.29-.22.58-.45.88-.66a25.77,25.77,0,0,1,5.36-2.91A24.66,24.66,0,0,1,40,24.87Zm-11.82-.31a23.18,23.18,0,0,0-2.53-2.8q-.21-.51-.39-1a25.62,25.62,0,0,1-1.36-6,24.87,24.87,0,0,1,4,5.74A24.79,24.79,0,0,0,28.19,24.56Zm-2.29,1.8a23,23,0,0,0-3.47-1.48c-.26-.24-.52-.5-.78-.76a26.74,26.74,0,0,1-3.73-4.83,24.05,24.05,0,0,1,6,3.52A26.53,26.53,0,0,0,25.9,26.36Zm-4.57.19a26,26,0,0,0,3.58,2.61,20.92,20.92,0,0,0,2.72,1.36c-.64-.07-1.28-.15-1.91-.26a31.28,31.28,0,0,1-5.94-1.55,26,26,0,0,1-5.41-2.81A24.31,24.31,0,0,1,21.33,26.55Zm19.43.16,1.07-.22a25.89,25.89,0,0,1,6.08-.39,24.05,24.05,0,0,1-8.46,3.62,30.82,30.82,0,0,1-5.68.57A19.85,19.85,0,0,0,40.76,26.71Zm2.83-16c1-.64,2.07-1.19,3.15-1.74.57-.29,1.16-.58,1.77-.84-.12.43-.22.87-.33,1.3-.25,1-.49,1.95-.77,2.92a35.15,35.15,0,0,1-1.55,4.39c-.42.13-.83.27-1.24.42a26.56,26.56,0,0,0-4.94,2.41,23.2,23.2,0,0,0,1.1-6.8A28.54,28.54,0,0,1,43.59,10.68ZM34.08,7.27c.65-1,1.38-2,2.12-2.9.4-.51.82-1,1.26-1.51.07.44.16.87.24,1.31.18,1,.38,2,.53,3a36.22,36.22,0,0,1,.43,4.64c-.33.3-.65.6-.95.9A26.4,26.4,0,0,0,34.23,17a23,23,0,0,0-1.85-6.63A27,27,0,0,1,34.08,7.27ZM24,8.19a35,35,0,0,1,.72-3.53c.15-.63.31-1.27.5-1.9L26,3.85c.57.82,1.16,1.64,1.72,2.47a35.25,35.25,0,0,1,2.33,4c-.17.4-.33.81-.49,1.22a26.51,26.51,0,0,0-1.37,5.34,22.62,22.62,0,0,0-4.45-5.24A27.19,27.19,0,0,1,24,8.19Zm-8.75,5.07c-.34-1.16-.59-2.33-.83-3.51-.12-.63-.25-1.28-.33-1.94l1.15.67c.87.5,1.75,1,2.6,1.52a35.21,35.21,0,0,1,3.81,2.68c0,.44,0,.88.07,1.31a26.8,26.8,0,0,0,1,5.42,22.91,22.91,0,0,0-6.23-2.88A28.47,28.47,0,0,1,15.26,13.26ZM9.44,21.54a35.9,35.9,0,0,1-2.22-2.83c-.38-.52-.76-1.06-1.12-1.62l1.33.12c1,.09,2,.17,3,.29a33.68,33.68,0,0,1,4.57.83c.2.39.4.78.61,1.16A26.24,26.24,0,0,0,18.78,24a22.86,22.86,0,0,0-6.86,0A25,25,0,0,1,9.44,21.54Zm-1.82,10c-1.1-.48-2.15-1.05-3.2-1.63-.56-.32-1.14-.65-1.69-1L4,28.43c.94-.33,1.88-.69,2.84-1a34.85,34.85,0,0,1,4.49-1.17c.35.27.69.54,1,.79a25.93,25.93,0,0,0,12.48,4.86,20.42,20.42,0,0,0,3,.09c-.6.21-1.22.4-1.84.57a31.68,31.68,0,0,1-6,1.1A26.1,26.1,0,0,1,7.62,31.52ZM58.33,30c-.91.43-1.8.89-2.72,1.3a31.57,31.57,0,0,1-5.52,2,23.91,23.91,0,0,1-11,.09,31.36,31.36,0,0,1-5.4-1.87,21.19,21.19,0,0,0,11.08-1.3A22.47,22.47,0,0,0,51,26.45a27,27,0,0,1,3.39.83c1.14.36,2.25.8,3.35,1.27.6.25,1.2.51,1.79.81Z"/></g></g></svg>