<svg xmlns="http://www.w3.org/2000/svg" viewBox="0 0 198 154.46"><defs><style>.cls-1{fill:#fff;}</style></defs><g id="Layer_2" data-name="Layer 2"><g id="Layer_1-2" data-name="Layer 1"><path class="cls-1" d="M0,142.77v-15H3.67v14.86c0,5.84,2.61,8.48,7.23,8.48s7.26-2.64,7.26-8.48V127.76h3.56v15c0,7.65-4.07,11.69-10.86,11.69S0,150.42,0,142.77Z"/><path class="cls-1" d="M29.25,127.76h3.67v23.11H46.83v3.28H29.25Z"/><path class="cls-1" d="M53.77,131H45v-3.28H66.21V131H57.4v23.11H53.77Z"/><path class="cls-1" d="M87.38,154.15l-5.54-8.1c-.51,0-1.06.07-1.61.07H73.88v8H70.21V127.76h10c6.68,0,10.71,3.47,10.71,9.2a8.31,8.31,0,0,1-5.65,8.33l6.09,8.86ZM87.27,137c0-3.77-2.46-5.92-7.15-5.92H73.88v11.88h6.24C84.81,142.92,87.27,140.73,87.27,137Z"/><path class="cls-1" d="M113.26,147.56H99.61l-2.83,6.59H93l11.63-26.39h3.64l11.67,26.39h-3.86Zm-1.29-3-5.54-12.94-5.54,12.94Z"/><path class="cls-1" d="M144.71,127.76l-11.27,26.39h-3.63l-11.3-26.39h4l9.25,21.68L141,127.76Z"/><path class="cls-1" d="M145.63,141c0-7.73,5.8-13.5,13.69-13.5a13.5,13.5,0,1,1,0,27C151.43,154.46,145.63,148.69,145.63,141Zm23.63,0a10,10,0,1,0-9.94,10.14A9.78,9.78,0,0,0,169.26,141Z"/><path class="cls-1" d="M193.78,154.15l-7.71-10.89-7.59,10.89h-4.22l9.65-13.53-9.07-12.86H179l7.19,10.14,7.12-10.14h4l-9.06,12.74L198,154.15Z"/><path class="cls-1" d="M196.84,91.57c-3.09-2-6-4.13-9.23-5.89a72.65,72.65,0,0,0-10.37-4.59,81.8,81.8,0,0,0-8.9-2.59q2.58-2.53,5-5.24c2.45-2.73,4.79-5.57,7.07-8.45,1.19-1.51,2.32-3.07,3.46-4.62.57-.78,1.09-1.58,1.62-2.39s.87-1.78,1.43-2.55a2.72,2.72,0,0,0-1.63-4.38c-3.62-.48-7.17-1.22-10.83-1.46a71.44,71.44,0,0,0-11.33.21A79.12,79.12,0,0,0,154,51q1.28-3.39,2.34-6.85c1.08-3.52,2-7.08,2.88-10.66.45-1.87.83-3.76,1.21-5.64.2-.95.33-1.9.47-2.86s0-2,.23-2.91a2.71,2.71,0,0,0-3.31-3.29c-3.49,1.08-7,1.91-10.44,3.24A72.13,72.13,0,0,0,137.15,27a80.25,80.25,0,0,0-7.73,5.13q-.25-3.61-.74-7.21c-.49-3.65-1.13-7.27-1.84-10.88-.37-1.89-.82-3.76-1.26-5.64-.23-.94-.5-1.86-.78-2.78s-.78-1.82-1-2.75a2.7,2.7,0,0,0-4.38-1.59c-2.72,2.45-5.57,4.7-8.13,7.34a72.35,72.35,0,0,0-7.18,8.8,81.67,81.67,0,0,0-4.87,7.9c-1.16-2.11-2.4-4.19-3.69-6.23-2-3.1-4.07-6.12-6.22-9.1C88.2,8.43,87,6.92,85.83,5.4c-.6-.76-1.23-1.48-1.87-2.2S82.49,1.88,81.9,1.13a2.7,2.7,0,0,0-4.64.4C75.82,4.9,74.16,8.14,73,11.61a72,72,0,0,0-2.83,11A81.31,81.31,0,0,0,69,31.85c-1.94-1.43-3.93-2.79-6-4.1-3.09-2-6.26-3.84-9.46-5.64-1.67-.94-3.39-1.8-5.1-2.68-.86-.44-1.73-.83-2.61-1.21s-1.89-.58-2.74-1a2.7,2.7,0,0,0-4,2.31c.1,3.67,0,7.31.31,11a73.14,73.14,0,0,0,2,11.19,80,80,0,0,0,2.85,8.85c-2.36-.48-4.74-.88-7.12-1.22-3.63-.5-7.29-.85-10.94-1.13-1.91-.15-3.83-.21-5.75-.29-1,0-1.92,0-2.88,0s-2,.27-2.91.24A2.72,2.72,0,0,0,12,51.94c1.63,3.28,3,6.64,4.87,9.82a73.21,73.21,0,0,0,6.52,9.3,81.15,81.15,0,0,0,6.29,6.83c-2.34.55-4.67,1.19-7,1.9-3.51,1.07-7,2.29-10.4,3.57C10.5,84,8.73,84.79,7,85.52c-.89.38-1.75.79-2.62,1.22s-1.66,1.07-2.53,1.44A2.72,2.72,0,0,0,1,92.77c2.85,2.3,5.51,4.76,8.52,6.86a73.25,73.25,0,0,0,9.81,5.7A85.89,85.89,0,0,0,40,112.19a83.15,83.15,0,0,0,41.48-2.36h0l.11,0,.92-.3.06,0a64.92,64.92,0,0,1,17.87-2.85,52.06,52.06,0,0,1,15.91,2.54A73.11,73.11,0,0,0,139,114.31c13,.87,25.71-2.34,37.59-7.45,3.37-1.46,6.68-3,9.95-4.7,1.72-.86,3.39-1.8,5.07-2.73.85-.47,1.66-1,2.47-1.49s1.54-1.25,2.37-1.71A2.73,2.73,0,0,0,196.84,91.57Zm-35.31-35c3.78-.5,7.56-.69,11.38-.82,2.05-.07,4.15-.12,6.23-.06-.9,1.09-1.77,2.21-2.67,3.3-2,2.48-4,5-6.1,7.41A110,110,0,0,1,160,77c-1.38-.18-2.76-.33-4.13-.45a83.54,83.54,0,0,0-17.46.33,72.94,72.94,0,0,0,12.21-18.15A84.61,84.61,0,0,1,161.53,56.56ZM99.26,42A77.59,77.59,0,0,1,103.2,64a80.52,80.52,0,0,0-4.58,12A71.7,71.7,0,0,0,95,64.5c0-1.16.12-2.32.23-3.48A83.32,83.32,0,0,1,99.26,42Zm11.62,20.85a82.94,82.94,0,0,1,11.58-15.58,77.61,77.61,0,0,1-5.61,21.58,80.25,80.25,0,0,0-9.18,9,70.45,70.45,0,0,0,1.54-11.93C109.75,64.89,110.3,63.87,110.88,62.86Zm16.31,16.2a81.15,81.15,0,0,0-12.09,4.28,70.31,70.31,0,0,0,6.38-10.15c.92-.72,1.85-1.42,2.8-2.09a83,83,0,0,1,17-9.26A77.66,77.66,0,0,1,127.19,79.06Zm-37.56-1a70.26,70.26,0,0,0-8.06-8.91c-.43-1.07-.85-2.16-1.24-3.25A83.3,83.3,0,0,1,76,47,77.53,77.53,0,0,1,88.76,65.25,81.3,81.3,0,0,0,89.63,78.1Zm-7.28,5.71a70,70,0,0,0-11-4.69Q70,77.94,68.83,76.69A82.59,82.59,0,0,1,57,61.32a77.09,77.09,0,0,1,19.21,11.2A82.27,82.27,0,0,0,82.35,83.81Zm-14.52.6a80.67,80.67,0,0,0,11.38,8.31A64.85,64.85,0,0,0,87.84,97c-2-.21-4-.46-6.06-.81a100.94,100.94,0,0,1-18.89-4.92,82.81,82.81,0,0,1-17.19-9A76.7,76.7,0,0,1,67.83,84.41Zm61.77.52c1.13-.26,2.26-.5,3.4-.7A82.56,82.56,0,0,1,152.33,83a76.42,76.42,0,0,1-26.89,11.49,97.8,97.8,0,0,1-18.06,1.82A63.24,63.24,0,0,0,129.6,84.93Zm9-51c3.23-2,6.58-3.81,10-5.54,1.83-.92,3.71-1.86,5.63-2.68-.36,1.37-.68,2.75-1,4.13-.81,3.09-1.55,6.21-2.44,9.29a109.8,109.8,0,0,1-4.94,14c-1.32.41-2.64.86-3.94,1.33a84.82,84.82,0,0,0-15.71,7.65,73,73,0,0,0,3.49-21.61A86.31,86.31,0,0,1,138.6,34ZM108.35,23.13c2.07-3.22,4.38-6.24,6.74-9.24,1.28-1.61,2.6-3.25,4-4.8.24,1.39.53,2.78.78,4.18.56,3.15,1.18,6.29,1.67,9.46a110.78,110.78,0,0,1,1.36,14.76c-1,.94-2,1.89-3,2.87a85.21,85.21,0,0,0-11.06,13.56A73.13,73.13,0,0,0,103,32.84,83.82,83.82,0,0,1,108.35,23.13Zm-32,2.9c.54-3.79,1.37-7.5,2.26-11.22.48-2,1-4.05,1.61-6.05.81,1.16,1.65,2.31,2.46,3.47,1.83,2.62,3.71,5.21,5.48,7.88a109.78,109.78,0,0,1,7.41,12.83C95,34.22,94.51,35.51,94,36.81a84.45,84.45,0,0,0-4.36,17A73,73,0,0,0,75.52,37.12,84.33,84.33,0,0,1,76.35,26ZM48.52,42.14c-1.09-3.66-1.89-7.38-2.64-11.13-.4-2-.79-4.09-1.06-6.17,1.22.71,2.46,1.4,3.68,2.11,2.76,1.61,5.54,3.17,8.26,4.85a108.48,108.48,0,0,1,12.1,8.53c0,1.39.11,2.78.22,4.16a84,84,0,0,0,3.14,17.23,72.63,72.63,0,0,0-19.81-9.16A84,84,0,0,1,48.52,42.14ZM30,68.49c-2.53-2.86-4.81-5.9-7.06-9-1.2-1.67-2.43-3.38-3.54-5.15,1.4.13,2.81.23,4.22.37,3.18.3,6.36.53,9.53.91A110,110,0,0,1,47.7,58.27c.62,1.25,1.27,2.48,1.94,3.69A84.6,84.6,0,0,0,59.7,76.28a72.81,72.81,0,0,0-21.81,0A83.07,83.07,0,0,1,30,68.49Zm-5.78,31.72c-3.5-1.54-6.84-3.33-10.17-5.19-1.79-1-3.62-2-5.37-3.18,1.33-.47,2.65-1,4-1.45,3-1.06,6-2.19,9-3.18A109.72,109.72,0,0,1,36,83.48c1.09.87,2.19,1.71,3.31,2.53A83,83,0,0,0,79,101.47a67.2,67.2,0,0,0,9.63.27c-1.93.67-3.87,1.28-5.85,1.82a101.68,101.68,0,0,1-19.2,3.49A82.94,82.94,0,0,1,24.23,100.21Zm161.21-5c-2.88,1.38-5.73,2.83-8.64,4.15a101.2,101.2,0,0,1-17.53,6.29,76.36,76.36,0,0,1-35,.27,98.43,98.43,0,0,1-17.16-6c11.62,2.07,24.32.09,35.23-4.11A71.73,71.73,0,0,0,162.11,84.1a85.5,85.5,0,0,1,10.78,2.62c3.64,1.14,7.15,2.56,10.67,4,1.89.8,3.81,1.63,5.68,2.57Z"/></g></g></svg>